<svg width="640" height="140" viewBox="0 0 640 140" fill="none" xmlns="http://www.w3.org/2000/svg" role="img" aria-label="Prism Clean Solutions">
  <defs>
    <linearGradient id="grad" x1="18" y1="18" x2="110" y2="110" gradientUnits="userSpaceOnUse">
      <stop stop-color="#0EA5E9"/>
      <stop offset="1" stop-color="#14B8A6"/>
    </linearGradient>
  </defs>
  <g transform="translate(18,18)">
    <rect x="0" y="0" width="104" height="104" rx="26" fill="#FFFFFF"/>
    <rect x="0.75" y="0.75" width="102.5" height="102.5" rx="25.25" stroke="#E2ECF3" stroke-width="1.5"/>
    <path d="M52 15C43 29 30 44 30 62.2C30 78 42.8 91 60 91C77.2 91 90 78 90 62.2C90 44 70 29 61 15H52Z" fill="url(#grad)"/>
    <path d="M78.5 30.6l2.4 5.2 5.3 2.4-5.3 2.4-2.4 5.2-2.4-5.2-5.3-2.4 5.3-2.4 2.4-5.2z" fill="#0B2B45" opacity="0.95"/>
    <rect x="18" y="88" width="68" height="7" rx="3.5" fill="#0EA5E9" opacity="0.28"/>
    <rect x="26" y="98" width="52" height="7" rx="3.5" fill="#14B8A6" opacity="0.22"/>
  </g>
  <g transform="translate(148,44)">
    <text x="0" y="30" font-family="ui-sans-serif, system-ui, -apple-system, Segoe UI, Roboto, Helvetica, Arial"
          font-size="36" font-weight="850" fill="#0B2B45" letter-spacing="0.2">Prism Clean Solutions</text>
    <text x="2" y="58" font-family="ui-sans-serif, system-ui, -apple-system, Segoe UI, Roboto, Helvetica, Arial"
          font-size="14" font-weight="650" fill="#1F4B6B" opacity="0.95">Corporate-grade clean • Eco-friendly finish • Melbourne</text>
  </g>
</svg>
