<svg width="520" height="120" viewBox="0 0 520 120" fill="none" xmlns="http://www.w3.org/2000/svg">
  <defs>
    <linearGradient id="g" x1="20" y1="20" x2="100" y2="100" gradientUnits="userSpaceOnUse">
      <stop stop-color="#0EA5E9"/>
      <stop offset="1" stop-color="#14B8A6"/>
    </linearGradient>
  </defs>
  <g transform="translate(14,14)">
    <rect x="0" y="0" width="92" height="92" rx="20" fill="#E6F6FB"/>
    <path d="M45 14C37 26 26 40 26 55.5C26 70 37.2 81 53 81C68.8 81 80 70 80 55.5C80 40 62.5 26 54 14H45Z"
          fill="url(#g)"/>
    <path d="M68.2 28.5l2.1 4.6 4.7 2.1-4.7 2.1-2.1 4.6-2.1-4.6-4.7-2.1 4.7-2.1 2.1-4.6z" fill="#0B2B45"/>
    <rect x="16" y="78" width="60" height="6" rx="3" fill="#0EA5E9" opacity="0.35"/>
    <rect x="24" y="86" width="44" height="6" rx="3" fill="#14B8A6" opacity="0.25"/>
  </g>
  <g transform="translate(130,42)">
    <text x="0" y="26" font-family="system-ui,Segoe UI,Roboto,Helvetica,Arial"
          font-size="34" font-weight="800" fill="#0B2B45">Prism Clean Solutions</text>
    <text x="2" y="54" font-family="system-ui,Segoe UI,Roboto,Helvetica,Arial"
          font-size="14" font-weight="600" fill="#1F4B6B">Corporate‑Grade Clean • Melbourne</text>
  </g>
</svg>
